<?xml version="1.0" encoding="UTF-8" standalone="no"?>
<svg
   xmlns:dc="http://purl.org/dc/elements/1.1/"
   xmlns:cc="http://creativecommons.org/ns#"
   xmlns:rdf="http://www.w3.org/1999/02/22-rdf-syntax-ns#"
   xmlns:svg="http://www.w3.org/2000/svg"
   xmlns="http://www.w3.org/2000/svg"
   xmlns:xlink="http://www.w3.org/1999/xlink"
   xmlns:sodipodi="http://sodipodi.sourceforge.net/DTD/sodipodi-0.dtd"
   xmlns:inkscape="http://www.inkscape.org/namespaces/inkscape"
   version="1.1"
   id="Capa_1"
   x="0px"
   y="0px"
   viewBox="0 0 1578 415.1"
   style="enable-background:new 0 0 1578 415.1;"
   xml:space="preserve"
   sodipodi:docname="goshortbg.svg"
   inkscape:version="1.0.2 (e86c870879, 2021-01-15, custom)"><metadata
   id="metadata53"><rdf:RDF><cc:Work
       rdf:about=""><dc:format>image/svg+xml</dc:format><dc:type
         rdf:resource="http://purl.org/dc/dcmitype/StillImage" /><dc:title></dc:title></cc:Work></rdf:RDF></metadata><defs
   id="defs51"><filter
     style="color-interpolation-filters:sRGB;"
     inkscape:label="Greyscale"
     id="filter1435"><feColorMatrix
       values="0 0 0 0 0 0 0 0 0 0 0 0 0 0 0 -0.783133 -0.963855 -0.421687 1.33 0 "
       id="feColorMatrix1433" /></filter><filter
     style="color-interpolation-filters:sRGB;"
     inkscape:label="Greyscale"
     id="filter1439"><feColorMatrix
       values="0 0 0 0 0 0 0 0 0 0 0 0 0 0 0 -0.783133 -0.963855 -0.421687 1.33 0 "
       id="feColorMatrix1437" /></filter><filter
     style="color-interpolation-filters:sRGB;"
     inkscape:label="Greyscale"
     id="filter1443"><feColorMatrix
       values="0 0 0 0 0 0 0 0 0 0 0 0 0 0 0 -0.783133 -0.963855 -0.421687 1.33 0 "
       id="feColorMatrix1441" /></filter></defs><sodipodi:namedview
   pagecolor="#ffffff"
   bordercolor="#666666"
   borderopacity="1"
   objecttolerance="10"
   gridtolerance="10"
   guidetolerance="10"
   inkscape:pageopacity="0"
   inkscape:pageshadow="2"
   inkscape:window-width="1920"
   inkscape:window-height="1017"
   id="namedview49"
   showgrid="false"
   inkscape:zoom="0.51442242"
   inkscape:cx="871.07994"
   inkscape:cy="-165.6955"
   inkscape:window-x="-8"
   inkscape:window-y="-8"
   inkscape:window-maximized="1"
   inkscape:current-layer="Capa_1"
   inkscape:document-rotation="0" />
<style
   type="text/css"
   id="style2">
	.st0{fill:#5FA199;}
	.st1{fill:#FFFFFF;}
	.st2{clip-path:url(#SVGID_2_);}
	.st3{fill:#008080;}
</style>
<g
   id="g18">
	<path
   class="st0"
   d="M3190.8-569.7h-25.2l9.7-49.6h78.5l-21.1,108.6c-2,10.1-7.6,18.8-16.8,26c-9.1,7.1-19,10.6-29.6,10.6h-78.3   c-10.7,0-19.2-3.5-25.5-10.6c-6.4-7.2-8.7-15.9-6.7-26l37.9-195c2-10.1,7.6-18.8,16.8-26c9.1-7.1,19-10.6,29.6-10.6h78.3   c10.7,0,19.2,3.5,25.5,10.6c6.4,7.2,8.7,15.9,6.7,26l-10.5,53.9h-53.3l7.9-40.9h-50.4l-32.8,169h50.4L3190.8-569.7z"
   id="path4" />
	<path
   class="st0"
   d="M3598.9-692.8h-50.4l-8.2,42.3c-2.2,11.5,5.1,17.3,21.9,17.3c22,0,39.2,5.9,51.5,17.6   c13.2,12.5,17.9,29,14,49.5l-10.8,55.3c-2,10.1-7.6,18.8-16.8,26c-9.1,7.1-19,10.6-29.6,10.6h-78.3c-10.7,0-19.2-3.5-25.5-10.6   c-6.4-7.2-8.7-15.9-6.7-26l10.5-54.1h53.3l-7.9,41.1h50.4l8.2-42.3c2.2-11.5-5.1-17.3-21.9-17.3c-22,0-39.2-5.9-51.5-17.6   c-13.3-12.5-18-29-14-49.5l10.8-55.3c2-10.1,7.6-18.8,16.8-26c9.1-7.1,19-10.6,29.6-10.6h78.3c10.7,0,19.2,3.5,25.5,10.6   c6.4,7.2,8.7,15.9,6.7,26l-10.5,53.9H3591L3598.9-692.8z"
   id="path6" />
	<path
   class="st0"
   d="M3630.9-583.4l-21.2,109.2h-53.3l52.2-268.2h53.3l-21.2,109.2h50.4l21.2-109.2h53.3l-52.2,268.2h-53.3   l21.2-109.2H3630.9z"
   id="path8" />
	<path
   class="st0"
   d="M3833.1-742.4c10.7,0,19.2,3.5,25.5,10.6c6.4,7.2,8.7,15.9,6.7,26l-37.9,195c-2,10.1-7.6,18.8-16.8,26   c-9.1,7.1-19,10.6-29.6,10.6h-78.3c-10.7,0-19.2-3.5-25.5-10.6c-6.4-7.2-8.7-15.9-6.7-26l37.9-195c2-10.1,7.6-18.8,16.8-26   c9.1-7.1,19-10.6,29.6-10.6H3833.1z M3759.1-692.8l-32.8,169h50.4l32.8-169H3759.1z"
   id="path10" />
	<path
   class="st0"
   d="M3839.4-569.7l-18.5,95.6h-53.3l52.2-268.2h117.6c10.7,0,19.2,3.5,25.5,10.6c6.4,7.2,8.7,15.9,6.7,26   l-13.5,69.1c-3.4,17.5-12.9,31.5-28.5,42c11.5,10.5,15.6,24.6,12.2,42.3l-15.2,78.2h-53.3l15.2-78.2c1-4.9-0.2-9-3.3-12.5   c-3.2-3.3-7.3-4.9-12.4-4.9H3839.4z M3880.5-619.4c5.1,0,9.8-1.7,14.3-5.1c4.4-3.3,7.1-7.3,8.1-12.2l10.9-56.1h-50.4l-14.3,73.4   H3880.5z"
   id="path12" />
	<path
   class="st0"
   d="M4010.5-692.8h-52l9.7-49.6h156.9l-9.7,49.6h-51.8l-42.5,218.6H3968L4010.5-692.8z"
   id="path14" />
	<rect
   x="3825.5"
   y="-742.4"
   class="st0"
   width="202"
   height="49.6"
   id="rect16" />
</g>
<path
   class="st0"
   d="M3428.6-742.4c10.7,0,19.2,3.5,25.5,10.6c6.4,7.2,8.7,15.9,6.7,26l-37.9,195c-2,10.1-7.6,18.8-16.8,26  c-9.1,7.1-19,10.6-29.6,10.6h-78.3c-10.7,0-19.2-3.5-25.5-10.6c-6.4-7.2-8.7-15.9-6.7-26l37.9-195c2-10.1,7.6-18.8,16.8-26  c9.1-7.1,19-10.6,29.6-10.6H3428.6z"
   id="path20" />
<rect
   x="3546.8"
   y="-716.8"
   transform="matrix(0.1909 -0.9816 0.9816 0.1909 3609.4482 2955.3792)"
   class="st1"
   width="101.4"
   height="10"
   id="rect22" />
<g
   id="g34">
	<defs
   id="defs25">
		<path
   id="SVGID_1_"
   d="M3428.6-742.4c10.7,0,19.2,3.5,25.5,10.6c6.4,7.2,8.7,15.9,6.7,26l-37.9,195c-2,10.1-7.6,18.8-16.8,26    c-9.1,7.1-19,10.6-29.6,10.6h-78.3c-10.7,0-19.2-3.5-25.5-10.6c-6.4-7.2-8.7-15.9-6.7-26l37.9-195c2-10.1,7.6-18.8,16.8-26    c9.1-7.1,19-10.6,29.6-10.6H3428.6z" />
	</defs>
	<clipPath
   id="SVGID_2_">
		<use
   xlink:href="#SVGID_1_"
   style="overflow:visible;"
   id="use27" />
	</clipPath>
	<g
   class="st2"
   clip-path="url(#SVGID_2_)"
   id="g32">
		<path
   class="st1"
   d="M3314.2-496.9c-15.1,18.6-30,37-45.5,56.1c0.1-2.1,0.1-3.2,0.1-4.3c0.3-13.3,0.8-26.5,0.9-39.8    c0-3.8,1.2-6.4,3.7-9.2c35.6-39.9,71.2-79.8,106.7-119.8c0.7-0.8,1.3-1.6,1.6-2.7c-9.6,7.6-19.2,15.2-28.8,22.8    c-28.5,22.5-56.9,45.1-85.4,67.6c-1.4,1.1-2.3,1.7-4.2,0.6c-24.2-13.8-48.5-27.6-72.8-41.3c-0.5-0.3-1-0.7-2-1.3    c84.6-39.7,168.7-79.1,253.4-118.8c-16,78.8-31.8,157-47.7,235.5C3367.5-466.8,3341-481.8,3314.2-496.9z"
   id="path30" />
	</g>
</g>
<path
   class="st3"
   d="M181.4,265.3h-37.7l14.5-74.2h117.4L244,353.5c-3,15.2-11.4,28.1-25.1,38.9c-13.6,10.6-28.4,15.9-44.4,15.9  H57.3c-16,0-28.7-5.3-38.2-15.9c-9.6-10.7-13-23.7-10-38.9L65.9,61.8c3-15.2,11.4-28.1,25.1-38.9C104.6,12.3,119.4,7,135.4,7h117.2  c16,0,28.7,5.3,38.2,15.9c9.6,10.8,13,23.7,10,38.9L285,142.4h-79.7l11.9-61.2h-75.4L92.7,334.1h75.4L181.4,265.3z"
   id="path36"
   style="fill:#00b5ad;fill-opacity:1;filter:url(#filter1435);opacity:0.15" />
<path
   class="st3"
   d="M1433,7h-88.8h-46h-156.1h-11.3h-8.6h-81.2H1025h-63.6l-31.8,163.4h-75.4l5.4-28h0l15.7-80.6c0,0,0-0.1,0-0.1  L886,7h-58.8h-20.9h-0.1l-14.4,74.2h0l-4.1,21.3l-14.1,72.4c-11.1-3-23.3-4.5-36.8-4.5c-25.1,0-36-8.6-32.7-25.9l12.3-63.3h60.1  L791,7h-81c-16,0-30.8,5.3-44.4,15.9c-13.8,10.8-22.1,23.7-25.1,38.9l-16.1,82.8c-6,30.7,0.9,55.3,20.9,74  c18.5,17.6,44.2,26.3,77.1,26.3c24.4,0,35.3,8.1,32.9,24.4l-12.6,64.8h-75.4l11.9-61.4h-79.7l-15.7,80.9c-3,15.2,0.3,28.1,10,38.9  c9.5,10.6,22.2,15.9,38.2,15.9h96.3h20.9h58.8l10.4-53.5c0.1-0.4,0.2-0.9,0.3-1.3l16.1-82.8c0.2-0.8,0.3-1.6,0.4-2.4l4.6-23.4h75.4  l-31.8,163.4H947H963h81.2h19.9h59.8l27.7-143h47c7.6,0,13.8,2.5,18.5,7.4c4.7,5.2,6.4,11.5,5,18.7l-22.8,116.9h79.7l22.8-116.9  c5.1-26.6-1-47.7-18.3-63.3c23.4-15.7,37.6-36.6,42.7-62.8l16.4-84h64.9L1344,408.3h79.5L1487,81.2h77.6L1579,7H1433z M1057.7,334.1  h-75.4l49.1-252.8h75.4L1057.7,334.1z M1246.5,165.2c-1.4,7.3-5.5,13.4-12.1,18.3c-6.6,5.1-13.8,7.6-21.3,7.6h-47l21.3-109.8h75.4  L1246.5,165.2z"
   id="path38"
   style="fill:#00b5ad;fill-opacity:1;filter:url(#filter1439);opacity:0.15" />
<g
   id="g46"
   style="fill:#00b5ad;fill-opacity:1;filter:url(#filter1443);opacity:0.15">
	<path
   class="st3"
   d="M293.8,353.5c-2.6,13-0.5,24.3,6.2,34.1c0.8-3.4,2.4-6.3,5-9.2c53.3-59.7,106.5-119.4,159.7-179.2   c1-1.1,2-2.4,2.4-4.1c-14.4,11.4-28.7,22.7-43.1,34.1c-35.7,28.2-71.3,56.5-107,84.7c-11.9,9.4-20,22.8-22.9,37.6L293.8,353.5z"
   id="path40"
   style="fill:#00b5ad;fill-opacity:1" />
	<path
   class="st3"
   d="M575.3,22.9C565.8,12.3,553.1,7,537.1,7H420c-16,0-30.8,5.3-44.3,15.9c-13.8,10.8-22.1,23.7-25.1,38.9   l-26.7,137.4c77.7-36.4,155.4-72.9,233.4-109.4c-20.9,103.3-41.7,205.8-62.5,308.6c3-1.8,5.9-3.8,8.8-6   c13.8-10.7,22.1-23.7,25.1-38.9l56.7-291.7C588.3,46.6,584.9,33.6,575.3,22.9z"
   id="path42"
   style="fill:#00b5ad;fill-opacity:1" />
	<path
   class="st3"
   d="M423.5,408.3h2.7c-20-11.3-40-22.7-60.2-34.1c-9.2,11.3-18.4,22.6-27.5,34c1.1,0.1,2.3,0.1,3.5,0.1H423.5z"
   id="path44"
   style="fill:#00b5ad;fill-opacity:1" />
</g>
</svg>
