<?xml version="1.0" encoding="UTF-8" standalone="no"?>
<svg
   xmlns:dc="http://purl.org/dc/elements/1.1/"
   xmlns:cc="http://creativecommons.org/ns#"
   xmlns:rdf="http://www.w3.org/1999/02/22-rdf-syntax-ns#"
   xmlns:svg="http://www.w3.org/2000/svg"
   xmlns="http://www.w3.org/2000/svg"
   xmlns:sodipodi="http://sodipodi.sourceforge.net/DTD/sodipodi-0.dtd"
   xmlns:inkscape="http://www.inkscape.org/namespaces/inkscape"
   id="Capa_1"
   data-name="Capa 1"
   viewBox="0 0 1570.9149 401.38"
   version="1.1"
   sodipodi:docname="goshort.svg"
   width="1570.9149"
   height="401.38"
   inkscape:version="0.92.4 (5da689c313, 2019-01-14)">
  <metadata
     id="metadata21">
    <rdf:RDF>
      <cc:Work
         rdf:about="">
        <dc:format>image/svg+xml</dc:format>
        <dc:type
           rdf:resource="http://purl.org/dc/dcmitype/StillImage" />
        <dc:title>go short logo</dc:title>
      </cc:Work>
    </rdf:RDF>
  </metadata>
  <sodipodi:namedview
     pagecolor="#ffffff"
     bordercolor="#666666"
     borderopacity="1"
     objecttolerance="10"
     gridtolerance="10"
     guidetolerance="10"
     inkscape:pageopacity="0"
     inkscape:pageshadow="2"
     inkscape:window-width="1920"
     inkscape:window-height="1017"
     id="namedview19"
     showgrid="false"
     inkscape:zoom="0.12291667"
     inkscape:cx="754.91496"
     inkscape:cy="298.49"
     inkscape:window-x="-8"
     inkscape:window-y="-8"
     inkscape:window-maximized="1"
     inkscape:current-layer="Capa_1" />
  <defs
     id="defs4">
    <style
       id="style2">.cls-1{fill:#5fa199;}</style>
  </defs>
  <title
     id="title6">go short logo</title>
  <path
     class="cls-1"
     d="m 173.27496,258.31 h -37.71 l 14.47,-74.23 h 117.4 l -31.52,162.46 q -4.5,22.77 -25.14,38.9 -20.4,15.89 -44.35,15.89 H 49.234958 q -24,0 -38.18,-15.89 Q -3.4150422,369.32 1.0549578,346.54 L 57.734958,54.82 q 4.54,-22.75 25.18,-38.93 Q 103.31496,0.01 127.26496,0 h 117.16 q 24,0 38.19,15.89 14.46,16.13 10,38.89 l -15.7,80.68 h -79.68 l 11.85,-61.19 h -75.41 L 84.574958,327.09 h 75.420002 z"
     id="path8"
     inkscape:connector-curvature="0"
     style="fill:#5fa199" />
  <path
     class="cls-1"
     d="M 1424.915,0.04 H 953.29496 l -31.78,163.41 h -75.41 l 5.44,-28 v 0 l 15.65,-80.64 c 0,0 0,-0.06 0,-0.09 l 10.72,-54.68 h -79.75 l -14.43,74.23 v 0 l -4.12,21.28 -14.06,72.34 a 142.48,142.48 0 0 0 -36.83,-4.46 q -37.71,0 -32.73,-25.85 l 12.33,-63.33 h 60.14 l 14.45,-74.21 h -81 q -24,0 -44.35,15.89 -20.65,16.13 -25.13,38.89 l -16.13,82.78 q -9,46 20.87,74 27.74,26.29 77.08,26.29 36.58,0 32.95,24.36 l -12.61,64.81 h -75.36 l 11.86,-61.42 h -79.69 l -15.66,80.87 q -4.5,22.77 10,38.9 14.17,15.92 38.17,15.92 h 176 l 10.4,-53.48 c 0.09,-0.43 0.2,-0.87 0.29,-1.31 l 16.13,-82.77 c 0.15,-0.82 0.26,-1.62 0.4,-2.43 l 4.56,-23.42 h 75.42 l -31.78,163.41 H 1115.905 l 27.75,-143 h 47 q 11.38,0 18.5,7.36 7.11,7.82 5,18.73 l -22.77,116.93 h 79.53 l 22.77,-116.93 q 7.59,-39.84 -18.27,-63.32 35.1,-23.48 42.7,-62.85 l 16.36,-84 h 64.93 l -63.49,327.08 h 79.45 l 63.55,-327.06 h 77.55 l 14.45,-74.23 z m -375.26,327.05 H 974.24496 L 1023.335,74.27 h 75.42 z m 188.81,-168.86 q -2.15,10.9 -12.1,18.26 -10,7.59 -21.34,7.59 h -47 l 21.34,-109.81 h 75.42 z"
     id="path10"
     inkscape:connector-curvature="0"
     style="fill:#5fa199" />
  <path
     class="cls-1"
     d="m 285.69496,346.54 q -3.86,19.45 6.17,34.06 a 20.22,20.22 0 0 1 5,-9.16 q 80,-89.49 159.67,-179.21 a 9.79,9.79 0 0 0 2.42,-4.06 q -21.52,17 -43.07,34.06 -53.47,42.35 -107,84.71 a 63.46,63.46 0 0 0 -22.88,37.64 z"
     id="path12"
     inkscape:connector-curvature="0"
     style="fill:#5fa199" />
  <path
     class="cls-1"
     d="M 567.21496,15.89 Q 552.97496,0.01 529.02496,0 h -117.11 q -24,0 -44.35,15.89 -20.65,16.17 -25.19,38.93 l -26.7,137.42 233.39,-109.44 c -20.93,103.29 -41.7,205.83 -62.52,308.64 a 85.22,85.22 0 0 0 8.81,-6 q 20.63,-16.12 25.14,-38.9 l 56.68,-291.72 q 4.5,-22.75 -9.96,-38.93 z"
     id="path14"
     inkscape:connector-curvature="0"
     style="fill:#5fa199" />
  <path
     class="cls-1"
     d="m 415.42496,401.33 h 2.65 l -60.19,-34 -27.54,33.95 c 1.15,0.06 2.31,0.1 3.49,0.1 z"
     id="path16"
     inkscape:connector-curvature="0"
     style="fill:#5fa199" />
</svg>
